<svg width="92" height="33" viewBox="0 0 92 33" fill="none" xmlns="http://www.w3.org/2000/svg">
<path d="M5.02143 26.0427C4.90289 26.0427 4.79721 25.9699 4.75437 25.8599C4.7458 25.8385 3.91605 23.692 3.14199 22.8951C2.37223 22.1024 0.208592 21.297 0.18717 21.2898C0.0772035 21.2498 0.00294055 21.1456 8.42692e-05 21.0271C-0.00277201 20.9099 0.0672063 20.8028 0.175745 20.7571C0.815552 20.4915 2.59502 19.6846 3.14628 19.1433C3.69611 18.6049 4.49444 16.8198 4.75579 16.1785C4.80006 16.07 4.91003 16.0014 5.02428 16C5.14139 16.0014 5.24707 16.0757 5.28706 16.1871C5.2942 16.2085 6.06683 18.2765 6.89943 19.1505C7.72633 20.0174 9.82569 20.7443 9.84711 20.7514C9.95993 20.79 10.0356 20.8942 10.0399 21.0128C10.0442 21.1313 9.97279 21.2398 9.86282 21.2855C9.83997 21.2941 7.60208 22.2238 6.88943 22.9022C6.3039 23.4592 5.5327 25.2272 5.2842 25.8613C5.24422 25.9699 5.13854 26.0427 5.02143 26.0427Z" fill="white"/>
<path d="M85.521 11.0419C85.3907 11.0419 85.2745 10.9618 85.2274 10.8409C85.218 10.8174 84.3057 8.4573 83.4546 7.58111C82.6083 6.70963 80.2293 5.82401 80.2058 5.81616C80.0849 5.77219 80.0032 5.65757 80.0001 5.52724C79.997 5.39848 80.0739 5.28071 80.1932 5.23046C80.8967 4.9384 82.8532 4.05121 83.4593 3.45609C84.0639 2.86411 84.9416 0.901316 85.229 0.19628C85.2777 0.0769416 85.3986 0.00157024 85.5242 0C85.6529 0.00157024 85.7691 0.0832225 85.8131 0.205701C85.821 0.229255 86.6705 2.50296 87.5859 3.46394C88.4951 4.41708 90.8033 5.21633 90.8269 5.22418C90.9509 5.26658 91.0342 5.3812 91.0389 5.51153C91.0436 5.64186 90.9651 5.7612 90.8442 5.81145C90.819 5.82087 88.3585 6.8431 87.5749 7.58896C86.9311 8.20135 86.0832 10.1453 85.81 10.8425C85.766 10.9618 85.6498 11.0419 85.521 11.0419Z" fill="white"/>
<g clip-path="url(#clip0)">
<path d="M70.6988 4H24.8157C24.8046 4 24.7934 4 24.7875 4.00075H19.3012C16.9296 4.00075 15 5.94125 15 8.32635L15.0007 28.6744C15.0007 31.0595 16.9303 33 19.302 33H70.6981C71.8475 33 72.9278 32.5502 73.7406 31.7327C74.5535 30.9153 75.0007 29.8288 75 28.6744L75.0015 8.3256C75 5.94051 73.0704 4 70.6988 4ZM73.1425 8.3256L73.141 28.6751C73.1418 29.3312 72.8877 29.9484 72.4263 30.4124C71.9649 30.8764 71.3504 31.1327 70.6973 31.1327H19.302C17.9542 31.1327 16.8582 30.0306 16.8582 28.6751L16.8575 8.32635C16.8575 6.97091 17.9534 5.86877 19.3012 5.86877H24.8031L24.8247 5.86803H70.6988C72.0466 5.86803 73.1425 6.97091 73.1425 8.3256Z" fill="white"/>
<path d="M55.4376 11.162C55.9495 11.162 56.3663 10.7428 56.3663 10.228C56.3663 9.71313 55.9495 9.29395 55.4376 9.29395H47.4875C47.4801 9.29395 47.4734 9.29395 47.4645 9.29469C47.457 9.29395 47.4496 9.29395 47.4414 9.29395C46.9295 9.29395 46.5127 9.71313 46.5127 10.228V26.7712C46.5127 27.286 46.9295 27.7052 47.4414 27.7052C47.4489 27.7052 47.4556 27.7052 47.4645 27.7045C47.4719 27.7052 47.4801 27.7052 47.4875 27.7052H55.4368C55.9488 27.7052 56.3656 27.286 56.3656 26.7712C56.3656 26.2564 55.9488 25.8372 55.4368 25.8372H48.3702V19.4328H52.7843C53.2963 19.4328 53.7131 19.0137 53.7131 18.4988C53.7131 17.984 53.2963 17.5648 52.7843 17.5648H48.3702V11.1612H55.4376V11.162Z" fill="white"/>
<path d="M67.1993 11.162C67.7112 11.162 68.128 10.7428 68.128 10.228C68.128 9.71313 67.7112 9.29395 67.1993 9.29395H59.2492C59.2418 9.29395 59.2351 9.29395 59.2262 9.29469C59.2188 9.29395 59.2113 9.29395 59.2032 9.29395C58.6912 9.29395 58.2744 9.71313 58.2744 10.228V26.7712C58.2744 27.286 58.6912 27.7052 59.2032 27.7052C59.2106 27.7052 59.2173 27.7052 59.2262 27.7045C59.2336 27.7052 59.2418 27.7052 59.2492 27.7052H67.1986C67.7105 27.7052 68.1273 27.286 68.1273 26.7712C68.1273 26.2564 67.7105 25.8372 67.1986 25.8372H60.1319V19.4328H64.5461C65.058 19.4328 65.4748 19.0137 65.4748 18.4988C65.4748 17.984 65.058 17.5648 64.5461 17.5648H60.1319V11.1612H67.1993V11.162Z" fill="white"/>
<path d="M30.7952 9.29395H22.8459C22.8385 9.29395 22.8318 9.29395 22.8229 9.29469C22.8154 9.29395 22.8073 9.29395 22.7998 9.29395C22.2879 9.29395 21.8711 9.71313 21.8711 10.228V26.7712C21.8711 27.286 22.2879 27.7052 22.7998 27.7052C23.3118 27.7052 23.7286 27.286 23.7286 26.7712V19.4328H28.1435C28.6554 19.4328 29.0722 19.0137 29.0722 18.4988C29.0722 17.984 28.6554 17.5648 28.1435 17.5648H23.7286V11.1612H30.7952C31.3072 11.1612 31.724 10.742 31.724 10.2272C31.724 9.71238 31.3072 9.29395 30.7952 9.29395Z" fill="white"/>
<path d="M41.329 18.6238C41.5883 18.4654 41.8298 18.2869 42.0482 18.0918C43.0171 17.2266 43.5788 16.0146 43.6286 14.6801C43.6308 14.6524 43.6323 14.624 43.6323 14.5964V14.4821C43.6323 14.4544 43.6308 14.4268 43.6286 14.3991C43.5788 13.0272 43.0082 11.7443 42.0229 10.7864C41.034 9.82469 39.733 9.29492 38.36 9.29492H34.0157C33.5037 9.29492 33.0869 9.71411 33.0869 10.2289V26.7722C33.0869 27.287 33.5037 27.7062 34.0157 27.7062C34.5276 27.7062 34.9444 27.287 34.9444 26.7722V19.4301H38.36C38.7775 19.4301 39.1929 19.3875 39.5963 19.3031L42.2399 27.0733C42.3684 27.4514 42.7214 27.7054 43.1189 27.7054C43.2214 27.7054 43.3224 27.6883 43.4198 27.6546C43.6546 27.5739 43.844 27.4058 43.9533 27.1816C44.0625 26.9575 44.0781 26.7042 43.9978 26.4681L41.329 18.6238ZM41.7748 14.5351C41.7465 16.2888 40.3111 17.5613 38.3607 17.5613H34.9452V11.1629H38.3607C40.2137 11.1629 41.7451 12.6783 41.7748 14.5351Z" fill="white"/>
</g>
<defs>
<clipPath id="clip0">
<rect width="60" height="29" fill="white" transform="translate(15 4)"/>
</clipPath>
</defs>
</svg>
