<svg width="47" height="43" viewBox="0 0 47 43" fill="none" xmlns="http://www.w3.org/2000/svg">
<path d="M44.0624 31.2728H42.1041C41.5629 31.2728 41.1249 30.8352 41.1249 30.2955C41.1249 29.7558 41.5629 29.3182 42.1041 29.3182H44.0624C44.6026 29.3182 45.0415 28.8797 45.0415 28.341V2.93178C45.0415 2.39303 44.6026 1.95452 44.0624 1.95452H2.93745C2.39719 1.95452 1.9583 2.39303 1.9583 2.93178V28.341C1.9583 28.8797 2.39719 29.3182 2.93745 29.3182H24.4791C25.0203 29.3182 25.4582 29.7558 25.4582 30.2955C25.4582 30.8352 25.0203 31.2728 24.4791 31.2728H2.93745C1.31762 31.2728 0 29.9577 0 28.341V2.93178C0 1.31507 1.31762 0 2.93745 0H44.0624C45.6822 0 46.9998 1.31507 46.9998 2.93178V28.341C47 29.9577 45.6822 31.2728 44.0624 31.2728Z" fill="white"/>
<path d="M46.0209 13.6818H0.97915C0.43795 13.6818 0 13.2443 0 12.7046V6.84103C0 6.30134 0.43795 5.86377 0.97915 5.86377H46.0209C46.562 5.86377 47 6.30134 47 6.84103V12.7047C47 13.2443 46.562 13.6818 46.0209 13.6818ZM1.9583 11.7273H45.0415V7.81829H1.9583V11.7273Z" fill="white"/>
<path d="M39.1665 43H27.4166C25.2565 43 23.5 41.2464 23.5 39.091V29.3182C23.5 27.1628 25.2565 25.4092 27.4166 25.4092H39.1665C41.3266 25.4092 43.0831 27.1628 43.0831 29.3182V39.091C43.0831 41.2464 41.3266 43 39.1665 43ZM27.4166 27.3637C26.337 27.3637 25.4583 28.2403 25.4583 29.3182V39.091C25.4583 40.1689 26.337 41.0455 27.4166 41.0455H39.1665C40.2461 41.0455 41.1248 40.1689 41.1248 39.091V29.3182C41.1248 28.2403 40.2461 27.3637 39.1665 27.3637H27.4166Z" fill="white"/>
<path d="M38.1868 27.3635H28.3952C27.854 27.3635 27.416 26.9259 27.416 26.3862V21.4999C27.416 18.2665 30.0514 15.6362 33.2911 15.6362C36.5308 15.6362 39.1662 18.2665 39.1662 21.4999V26.3862C39.166 26.9259 38.728 27.3635 38.1868 27.3635ZM29.3743 25.409H37.2077V21.4999C37.2077 19.3445 35.4512 17.5909 33.2911 17.5909C31.131 17.5909 29.3745 19.3445 29.3745 21.4999V25.409H29.3743Z" fill="white"/>
<path d="M33.2919 35.1819C31.6721 35.1819 30.3545 33.8668 30.3545 32.2501C30.3545 30.6334 31.6721 29.3184 33.2919 29.3184C34.9118 29.3184 36.2294 30.6334 36.2294 32.2501C36.2294 33.8668 34.9118 35.1819 33.2919 35.1819ZM33.2919 31.2727C32.7517 31.2727 32.3128 31.7112 32.3128 32.25C32.3128 32.7887 32.7517 33.2272 33.2919 33.2272C33.8322 33.2272 34.2711 32.7887 34.2711 32.25C34.2711 31.7112 33.8322 31.2727 33.2919 31.2727Z" fill="white"/>
<path d="M33.2916 38.1138C32.7504 38.1138 32.3125 37.6763 32.3125 37.1366V34.2048C32.3125 33.6651 32.7504 33.2275 33.2916 33.2275C33.8328 33.2275 34.2708 33.6651 34.2708 34.2048V37.1366C34.2708 37.6763 33.8328 38.1138 33.2916 38.1138Z" fill="white"/>
</svg>
