<svg width="57" height="38" viewBox="0 0 57 38" fill="none" xmlns="http://www.w3.org/2000/svg">
<g clip-path="url(#clip0)">
<path d="M15.2362 15.6289C15.2362 15.1694 14.8692 14.7947 14.4155 14.7947H0.820768C0.367033 14.7947 0 15.1694 0 15.6289C0 16.0885 0.367033 16.4632 0.820768 16.4632H14.4126C14.8692 16.4602 15.2362 16.0885 15.2362 15.6289ZM5.14425 8.43989H18.736C19.1898 8.43989 19.5597 8.06815 19.5597 7.60566C19.5597 7.14317 19.1927 6.77143 18.736 6.77143H5.14425C4.69051 6.77143 4.32348 7.14317 4.32348 7.60566C4.32348 8.06815 4.68762 8.43989 5.14425 8.43989ZM24.938 25.8446C21.6319 25.8446 18.9412 28.5727 18.9412 31.9272C18.9412 35.2758 21.6319 38.001 24.938 38.001C28.2442 38.001 30.9349 35.2758 30.9349 31.9272C30.9349 28.5727 28.2442 25.8446 24.938 25.8446ZM24.938 36.3354C22.5393 36.3354 20.5857 34.3567 20.5857 31.9272C20.5857 29.4918 22.5393 27.5101 24.938 27.5101C27.3397 27.5101 29.2904 29.4918 29.2904 31.9272C29.2904 34.3567 27.3397 36.3354 24.938 36.3354ZM2.98251 12.4501H16.5743C17.028 12.4501 17.3951 12.0783 17.3951 11.6158C17.3951 11.1563 17.028 10.7845 16.5743 10.7845H2.98251C2.52877 10.7845 2.15885 11.1563 2.15885 11.6158C2.15885 12.0783 2.52877 12.4501 2.98251 12.4501ZM50.9194 18.3248C51.4194 18.3248 51.8615 18.0204 52.0465 17.5462C52.2228 17.0954 52.1216 16.589 51.7922 16.2436L45.648 8.84676C45.6249 8.81749 45.5988 8.79115 45.5699 8.76773C45.3416 8.55698 45.0469 8.44282 44.7434 8.44282H41.4285C40.7609 8.44282 40.2147 8.99312 40.2147 9.67221V17.0954C40.2147 17.7716 40.7581 18.3248 41.4285 18.3248H50.9194ZM41.8592 10.1084H44.544L49.9859 16.6593H41.8592V10.1084ZM57 22.7331V19.5571C57 18.4595 56.5636 17.3852 55.8006 16.6007L47.5207 6.79777C47.5063 6.78021 47.4889 6.76265 47.4745 6.74801C46.6884 5.96354 45.6538 5.53033 44.5584 5.53033H38.92V3.36425C38.92 1.51138 37.4316 0.00390625 35.6022 0.00390625H14.8229C12.9936 0.00390625 11.5052 2.35146 11.5052 4.20434V5.10297C11.5052 5.56252 11.8722 5.9372 12.326 5.9372C12.7797 5.9372 13.1496 5.56545 13.1496 5.10297V4.20434C13.1496 3.27058 13.901 1.66944 14.8229 1.66944H35.6051C36.5271 1.66944 37.2785 2.4305 37.2785 3.36425V6.36163C37.2785 6.82119 37.6455 7.19294 38.1021 7.19294H44.5613C45.2 7.19294 45.8329 7.45345 46.2982 7.90716L54.5724 17.7043C54.5868 17.7218 54.6013 17.7365 54.6157 17.7511C55.0868 18.2282 55.3556 18.8839 55.3556 19.5542V20.5524H13.1496V18.3512C13.1496 17.8916 12.7826 17.5169 12.326 17.5169C11.8722 17.5169 11.5023 17.8887 11.5023 18.3482V22.7945C11.5023 22.8121 11.5023 22.8297 11.5052 22.8501V28.3912C11.5052 30.2441 12.9936 31.7516 14.8229 31.7516H17.0598C17.5136 31.7516 17.8806 31.3798 17.8806 30.9173C17.8806 30.4578 17.5136 30.086 17.0598 30.086H14.8258C13.9039 30.086 13.1525 29.325 13.1525 28.3912V22.8004C13.1525 22.7828 13.1525 22.7623 13.1496 22.7448V22.2208H55.3556V22.8004C55.3556 22.8238 55.3556 22.8443 55.3585 22.8648V28.3971C55.3585 29.3308 54.6071 30.0919 53.6851 30.0919H52.1216C51.6679 30.0919 51.3009 30.4636 51.3009 30.9232C51.3009 31.3827 51.6679 31.7574 52.1216 31.7574H53.6851C55.5145 31.7574 57.0029 30.2499 57.0029 28.3971V22.8004C57 22.777 57 22.7565 57 22.7331ZM36.3276 30.0919H32.8423C32.3885 30.0919 32.0215 30.4636 32.0215 30.9232C32.0215 31.3827 32.3885 31.7574 32.8423 31.7574H36.3276C36.7814 31.7574 37.1484 31.3857 37.1484 30.9232C37.1513 30.4636 36.7814 30.0919 36.3276 30.0919ZM44.2001 25.8446C40.8939 25.8446 38.2033 28.5727 38.2033 31.9272C38.2033 35.2758 40.8939 38.001 44.2001 38.001C47.5063 38.001 50.1969 35.2758 50.1969 31.9272C50.1969 28.5727 47.5063 25.8446 44.2001 25.8446ZM44.2001 36.3354C41.7985 36.3354 39.8477 34.3567 39.8477 31.9272C39.8477 29.4918 41.8014 27.5101 44.2001 27.5101C46.6017 27.5101 48.5525 29.4918 48.5525 31.9272C48.5525 34.3567 46.6017 36.3354 44.2001 36.3354ZM24.9265 30.5953C24.2155 30.5953 23.6375 31.1808 23.6375 31.9008C23.6375 32.6209 24.2155 33.2063 24.9265 33.2063C25.6374 33.2063 26.2154 32.6209 26.2154 31.9008C26.2154 31.1808 25.6374 30.5953 24.9265 30.5953ZM44.4313 30.5953C43.7203 30.5953 43.1423 31.1808 43.1423 31.9008C43.1423 32.6209 43.7203 33.2063 44.4313 33.2063C45.1422 33.2063 45.7202 32.6209 45.7202 31.9008C45.7202 31.1808 45.1422 30.5953 44.4313 30.5953Z" fill="white"/>
</g>
<defs>
<clipPath id="clip0">
<rect width="57" height="38" fill="white"/>
</clipPath>
</defs>
</svg>
